<svg xmlns="http://www.w3.org/2000/svg" width="158.163" height="95.139" viewBox="0 0 158.163 95.139"><defs><style>.a{fill:#161615;font-size:27.943px;font-family:Silom;letter-spacing:-0.003em;}.b{fill:#df222c;}.c{fill:#ffb300;}.d{fill:none;}.e{fill:#ffbc00;}.f{fill:#e74e0f;}.g{fill:#542176;}.h{fill:#db0017;}.i{fill:#006cb1;}.j{fill:#aec010;}.k{fill:#994a91;}.l{fill:#9e4a92;}.m{fill:#479c24;}.n{fill:#50a02f;}.o{fill:#e33f0e;}.p{fill:#b1c112;}.q{fill:#acbf14;}</style></defs><g transform="translate(26.881 -211.558)"><text class="a" transform="translate(19.282 297.697)"><tspan x="0" y="0">Troikka</tspan></text><path class="b" d="M-17.647,285.141a1.085,1.085,0,0,1,.287-.033,1.433,1.433,0,0,1,.263.025l20.629,3.813a1.312,1.312,0,0,1,.189.041l-.625,1.48H3.088l-20.6-3.806Z"/><path class="b" d="M2.48,291.634l-.1-.025L-17.138,287.8a1.222,1.222,0,0,0-.181-.017l.436,1.669,18.434,3.583Z"/><path class="b" d="M-8.131,292.541l-8.547-1.606C-14.4,297.1-9.552,297.6-9.1,297.7c.48.079,5.207,1.371,9.517-3.553Z"/><path class="c" d="M-16.363,217.945a2,2,0,0,0,.358.106,1.967,1.967,0,0,0,2.288-1.58,2.018,2.018,0,0,0,.027-.463A29.64,29.64,0,0,0-16.363,217.945Z"/><path class="d" d="M23.028,221.6a.033.033,0,0,0,.005.02c.04.056.08.111.117.164l.275-.2-.115-.157s-.01-.012-.016-.013l-.23-.037C23.051,221.456,23.039,221.53,23.028,221.6Z"/><path class="d" d="M23.869,221.744c.014-.075.025-.151.038-.228-.07-.012-.136-.021-.2-.033a.073.073,0,0,0-.065.015l-.66.481q-.038.027-.072.057a.4.4,0,0,1-.592-.077.392.392,0,0,1-.033-.348.328.328,0,0,1,.273-.238.407.407,0,0,1,.382.127l.031.031.037-.228.231.037-.008-.016a.688.688,0,0,0-.663-.3.724.724,0,0,0-.555,1.091.7.7,0,0,0,.481.351.661.661,0,0,0,.49-.071c.063-.039.12-.087.181-.131l.677-.494C23.851,221.763,23.867,221.754,23.869,221.744Z"/><path class="e" d="M24.811,222.376a.74.74,0,0,1-.579.355.682.682,0,0,1-.633-.307c-.056-.085-.115-.168-.173-.252l-.011-.018.273-.2c.049.071.107.144.153.223a.4.4,0,0,0,.624.094.389.389,0,0,0,.095-.2c-.13-.152-.263-.3-.4-.452a.428.428,0,0,0-.173.047l-.042.021.037-.229-.234-.038c.024-.017.04-.029.058-.04a1.036,1.036,0,0,1,.095-.045c-.479-.523-.971-1.034-1.488-1.521a2.288,2.288,0,1,0,2.949,3.236C25.185,222.823,25,222.6,24.811,222.376Zm-1.5-.946.115.157-.275.2c-.037-.053-.077-.108-.117-.164a.033.033,0,0,1-.005-.02c.011-.073.023-.147.036-.223l.23.037C23.3,221.418,23.306,221.425,23.31,221.43Zm-.146.834c-.061.044-.118.092-.181.131a.661.661,0,0,1-.49.071.7.7,0,0,1-.481-.351.724.724,0,0,1,.555-1.091.688.688,0,0,1,.663.3l.008.016-.231-.037-.037.228-.031-.031a.407.407,0,0,0-.382-.127.328.328,0,0,0-.273.238.392.392,0,0,0,.033.348.4.4,0,0,0,.592.077q.034-.03.072-.057l.66-.481a.073.073,0,0,1,.065-.015c.065.012.131.021.2.033-.013.077-.024.153-.038.228,0,.01-.018.019-.028.026Z"/><circle class="f" cx="5.064" cy="5.064" r="5.064" transform="translate(-15.694 225.247)"/><path class="f" d="M-10.877,244.235c-6.694,4.3-8.866,9.778-7.293,20.538.581,5.561-.075,12.877-3.122,15.951l.812-4.324c1.959-13.845-4.674-20.137-5.673-29.689a28.914,28.914,0,0,1-.228-11.8,28.811,28.811,0,0,1,7.521-14.662c.908-.768,2.2-.909,3.609.278,2.472,2.084-3.559,5.873-4.9,12.159-1.266,5,1.518,5.683,8,4.773S-2.524,238.935-10.877,244.235Z"/><circle class="g" cx="5.064" cy="5.064" r="5.064" transform="translate(12.406 230.526)"/><path class="b" d="M4.45,276.99c.613,5.3,2.77,8.915,1.952,9.908-.7,1.173-5.373.137-12.053-1.118s-9.443-1.605-10.932-2.048-4.2-1.895-1.592-4.077,5.154-5.678,4.236-12.508c-1.069-6.858-2.817-13.474-.532-14.3,3.116-.231,2.723,1.612,6.4,8.9,3.64,6.657,8.578,5.384,13.229-.88a10.016,10.016,0,0,0,1.866-4.162c.764-3.559,5.734-3.1,4.7,2.366S4.983,269.339,4.45,276.99Z"/><circle class="b" cx="5.13" cy="5.13" r="5.13" transform="translate(-6.72 250.081)"/><path class="e" d="M2.121,229.528a.207.207,0,1,0,.407.08.207.207,0,1,0-.407-.08Z"/><path class="e" d="M.692,229.051a.208.208,0,1,0,.153.249A.207.207,0,0,0,.692,229.051Z"/><path class="e" d="M1.951,226.861a2.592,2.592,0,0,0-.957,5.1,2.592,2.592,0,0,0,.957-5.1Zm1.2,3.094a1.365,1.365,0,0,0-.143.022.021.021,0,0,0-.013.009.19.19,0,0,0-.025.04c-.008.017,0,.033.007.049.011.041.028.081.036.124a.134.134,0,0,1-.052.136,1.343,1.343,0,0,1-.163.117.241.241,0,0,1-.08.035.115.115,0,0,1-.091-.026l-.115-.085a.07.07,0,0,0-.1.028c-.027.046-.047.095-.076.14a.111.111,0,0,1-.106.047,1.158,1.158,0,0,1-.219-.033.158.158,0,0,1-.108-.065.2.2,0,0,1-.022-.083c0-.025-.008-.049-.012-.074l0-.008c.007-.039-.018-.057-.047-.074a.035.035,0,0,0-.03,0c-.047.014-.094.029-.142.041a.128.128,0,0,1-.131-.035.462.462,0,0,1-.053-.064.108.108,0,0,1,.055-.168.12.12,0,0,1,.114.028.026.026,0,0,0,.031.006c.046-.014.092-.029.138-.041a.1.1,0,0,1,.077.013c.047.031.094.062.143.09a.1.1,0,0,1,.047.081c0,.048.019.094.022.142,0,.007,0,.009.009.01.023,0,.045.009.068.012a.021.021,0,0,0,.025-.014c.02-.043.044-.082.067-.123a.115.115,0,0,1,.1-.06.68.68,0,0,0,.112-.027.13.13,0,0,1,.119.023c.034.024.068.047.1.074a.023.023,0,0,0,.031,0h0c.019-.014.05-.022.055-.044s-.01-.044-.016-.066a.922.922,0,0,1-.025-.09.123.123,0,0,1,.03-.107.543.543,0,0,0,.057-.092.123.123,0,0,1,.1-.071c.045-.005.09-.013.136-.019a.011.011,0,0,0,.011-.011l.011-.063a.027.027,0,0,0-.019-.031l-.118-.064a.11.11,0,0,1-.06-.089,1.145,1.145,0,0,0-.029-.129.127.127,0,0,1,.02-.1l.08-.109a.019.019,0,0,0,0-.025l-.037-.053c-.006-.009-.013-.01-.024-.006-.048.015-.1.031-.147.042a.1.1,0,0,1-.082-.016.879.879,0,0,0-.123-.078.1.1,0,0,1-.057-.082c-.007-.04-.014-.081-.022-.121v0c0-.01,0-.025,0-.031a.1.1,0,0,0-.036-.009c-.056-.011-.056-.01-.082.041-.016.032-.034.065-.052.1a.132.132,0,0,1-.11.058.7.7,0,0,0-.1.024.121.121,0,0,1-.1-.019c-.038-.026-.074-.053-.111-.08-.006,0-.011-.008-.018,0a.259.259,0,0,0-.052.034c-.007.006,0,.015,0,.024.014.041.03.08.04.121a.114.114,0,0,1-.021.107c-.051.058-.105.114-.158.17a.035.035,0,0,0-.013.036.081.081,0,0,1,0,.022c-.019.077-.022.157-.035.235a.148.148,0,0,1-.04.083l-.2.224a.1.1,0,0,1-.123.023.22.22,0,0,0-.052-.013.186.186,0,0,1-.061-.018l-.009,0a.1.1,0,0,0-.062.053c-.01.054-.022.108-.029.162a.1.1,0,0,1-.085.09.972.972,0,0,1-.245.045.118.118,0,0,1-.118-.057l-.082-.14s-.007-.01-.011-.011c-.027,0-.053-.016-.08.007s-.072.052-.106.082a.123.123,0,0,1-.139.01.822.822,0,0,1-.225-.153.1.1,0,0,1-.032-.1c.008-.053.031-.1.038-.153a.075.075,0,0,0-.078-.091.475.475,0,0,1-.15-.023.1.1,0,0,1-.067-.081,1.307,1.307,0,0,1-.047-.232.259.259,0,0,1,.015-.1.05.05,0,0,1,.019-.022.817.817,0,0,1,.137-.08.082.082,0,0,0,.048-.078c0-.009-.005-.016-.01-.024-.031-.043-.066-.084-.1-.128a.109.109,0,0,1,0-.123.921.921,0,0,1,.112-.18c.025-.028.046-.062.084-.074a.1.1,0,0,1,.079,0,.248.248,0,0,0,.053.016.3.3,0,0,1,.071.021.043.043,0,0,0,.047-.005c.054-.037.054-.036.065-.1a.493.493,0,0,0,.011-.094.114.114,0,0,1,.091-.108,1.044,1.044,0,0,1,.241-.038.11.11,0,0,1,.112.056c.024.044.049.087.075.13a.066.066,0,0,0,.1.015c.039-.035.084-.062.125-.093a.073.073,0,0,1,.062-.014.4.4,0,0,1,.168.079.653.653,0,0,1,.107.083.1.1,0,0,1,.035.1.954.954,0,0,1-.037.149.051.051,0,0,0,.007.055.429.429,0,0,1,.05.082.113.113,0,0,1-.068.158.12.12,0,0,1-.111-.039c-.032-.047-.063-.1-.1-.142a.088.088,0,0,1-.014-.069c.008-.049.025-.1.037-.145a.034.034,0,0,0-.016-.041l-.014-.011c-.042-.029-.044-.029-.082,0a1.012,1.012,0,0,1-.1.073.075.075,0,0,1-.06.013c-.061-.012-.122-.022-.182-.035a.121.121,0,0,1-.077-.073l-.052-.092a.034.034,0,0,0-.037-.018c-.054.008-.062.013-.06.068a.571.571,0,0,1-.014.109.086.086,0,0,1-.048.065.751.751,0,0,0-.134.087A.135.135,0,0,1,.1,228.8a.145.145,0,0,0-.042-.012.149.149,0,0,1-.045-.015.028.028,0,0,0-.042.01c-.009.015-.018.031-.028.046s0,.019.006.026c.033.036.057.078.086.116a.1.1,0,0,1,.018.083l-.03.158a.1.1,0,0,1-.042.064c-.036.026-.077.045-.115.069a.073.073,0,0,0-.018.1.034.034,0,0,0,.023.011c.047.008.095.018.142.025a.1.1,0,0,1,.074.05,1.322,1.322,0,0,0,.074.11.134.134,0,0,1,.012.145.4.4,0,0,0-.022.1c0,.032.032.037.051.053s.025,0,.037,0l.125-.088a.076.076,0,0,1,.059-.012l.175.034a.091.091,0,0,1,.053.033c.029.038.049.082.074.122a.047.047,0,0,0,.06.027l.012,0c.036-.01.034-.007.04-.04l.024-.135a.1.1,0,0,1,.063-.081.419.419,0,0,0,.093-.062.135.135,0,0,1,.152-.012.4.4,0,0,0,.076.017.022.022,0,0,0,.021-.009l.127-.141a.043.043,0,0,0,.01-.024.51.51,0,0,0,.016-.1c0-.046.013-.09.014-.137a.154.154,0,0,1,.046-.119c.043-.038.08-.084.119-.126a.028.028,0,0,0,.007-.031c-.013-.042-.025-.084-.04-.126a.111.111,0,0,1,.038-.137,1.123,1.123,0,0,1,.218-.143.122.122,0,0,1,.111.014,1.372,1.372,0,0,1,.125.091.041.041,0,0,0,.029.007c.041,0,.06-.028.077-.061s.042-.081.067-.119a.11.11,0,0,1,.105-.044,1.075,1.075,0,0,1,.212.032.168.168,0,0,1,.113.064.26.26,0,0,1,.023.09c.006.038.011.076.017.114a.024.024,0,0,0,.007.012q.022.017.045.03a.016.016,0,0,0,.015,0h0a.2.2,0,0,1,.068-.023c.03-.01.061-.019.092-.027a.019.019,0,0,1,.013,0,.172.172,0,0,1,.151.093,1.142,1.142,0,0,1,.108.168.122.122,0,0,1-.019.133c-.027.039-.056.077-.084.116a.032.032,0,0,0,0,.027c0,.048.039.067.076.085a.879.879,0,0,1,.105.057.114.114,0,0,1,.042.117c-.012.083-.029.166-.046.248A.123.123,0,0,1,3.156,229.955Zm-.53-.676,0,0a.288.288,0,0,1,.081.124.349.349,0,0,1,.037.19.439.439,0,0,1-.036.151.423.423,0,0,1-.232.221.418.418,0,0,1-.518-.18.4.4,0,0,1-.031-.365.417.417,0,0,1,.326-.266.26.26,0,0,1,.111,0,.589.589,0,0,1,.136.034.327.327,0,0,1,.124.094Zm-1.567.055a.424.424,0,0,1-.833-.16.418.418,0,0,1,.494-.332A.418.418,0,0,1,1.059,229.334Z"/><path class="d" d="M7.36,212.534l0,.01a.031.031,0,0,1-.019.03.412.412,0,0,0-.053.032l-.008.009a.115.115,0,0,0-.006.037.566.566,0,0,0,.019.091.039.039,0,0,0,.026.032.2.2,0,0,0,.059.009.029.029,0,0,1,.031.035c0,.021-.012.04-.015.061a.04.04,0,0,0,.012.037.336.336,0,0,0,.089.061.047.047,0,0,0,.054,0c.014-.012.029-.021.042-.032s.021-.005.032,0l0,0,.032.055a.048.048,0,0,0,.046.023.4.4,0,0,0,.1-.018.039.039,0,0,0,.033-.035c0-.022.008-.043.012-.064a.039.039,0,0,1,.024-.021h0a.1.1,0,0,0,.024.007.118.118,0,0,1,.02,0,.041.041,0,0,0,.048-.009l.08-.088a.064.064,0,0,0,.016-.033c0-.03.006-.062.013-.092v-.009a.017.017,0,0,1,.005-.014l.063-.067a.045.045,0,0,0,.008-.042.371.371,0,0,0-.016-.047v-.01a.086.086,0,0,1,.02-.013h.007l.044.032a.049.049,0,0,0,.041.007.288.288,0,0,1,.04-.009.053.053,0,0,0,.044-.023l.02-.038c.011-.02.01-.02.033-.016l.014,0s0,.008,0,.012h0l.008.048a.041.041,0,0,0,.023.032.3.3,0,0,1,.048.031.037.037,0,0,0,.032.006.554.554,0,0,0,.058-.017c.005,0,.008,0,.01,0l.014.021v.01l-.031.043a.046.046,0,0,0-.008.041.419.419,0,0,1,.011.051.044.044,0,0,0,.024.035l.046.025a.011.011,0,0,1,.008.012l-.005.025,0,0-.054.008a.049.049,0,0,0-.04.028.186.186,0,0,1-.022.035.052.052,0,0,0-.012.043c0,.012.007.023.01.035s.009.018.007.026-.015.012-.022.017h0a.009.009,0,0,1-.012,0,.356.356,0,0,0-.039-.029.048.048,0,0,0-.047-.009.313.313,0,0,1-.044.01.049.049,0,0,0-.039.024c-.008.016-.018.031-.026.048a.008.008,0,0,1-.01.006l-.026-.005,0,0c0-.019-.007-.037-.008-.056a.04.04,0,0,0-.019-.032l-.056-.035a.037.037,0,0,0-.031,0l-.054.016a.011.011,0,0,1-.012,0,.045.045,0,0,0-.045-.011.043.043,0,0,0-.022.066.263.263,0,0,0,.022.025.051.051,0,0,0,.051.014l.056-.017a.017.017,0,0,1,.012,0c.011.007.021.014.018.029v0c0,.01,0,.02.005.029a.073.073,0,0,0,.008.033.062.062,0,0,0,.043.025.415.415,0,0,0,.086.013.044.044,0,0,0,.042-.018c.011-.018.019-.037.03-.055a.026.026,0,0,1,.037-.011l.046.034a.047.047,0,0,0,.035.01.115.115,0,0,0,.032-.014.574.574,0,0,0,.064-.046.053.053,0,0,0,.02-.054c0-.016-.01-.032-.014-.049s-.006-.012,0-.018l.01-.017,0,0a.544.544,0,0,1,.056-.009.046.046,0,0,0,.044-.033c.007-.032.014-.065.019-.1a.044.044,0,0,0-.017-.045.328.328,0,0,0-.041-.023c-.015-.007-.029-.014-.03-.033a.011.011,0,0,1,0-.011l.033-.046a.049.049,0,0,0,.008-.052.5.5,0,0,0-.043-.066.07.07,0,0,0-.059-.037H8.583l-.036.011a.058.058,0,0,0-.026.009H8.514l-.017-.012,0,0-.007-.045a.086.086,0,0,0-.009-.035.068.068,0,0,0-.044-.026.386.386,0,0,0-.083-.012.043.043,0,0,0-.042.017.43.43,0,0,0-.026.047c-.007.013-.014.024-.031.024a.015.015,0,0,1-.011,0,.551.551,0,0,0-.049-.035.046.046,0,0,0-.044-.006.431.431,0,0,0-.085.056.044.044,0,0,0-.015.054c.006.016.01.033.015.049a.012.012,0,0,1,0,.013c-.016.016-.03.034-.047.049a.059.059,0,0,0-.018.047c0,.018-.006.036-.006.054a.238.238,0,0,1-.006.037l0,.01-.05.055-.008,0a.164.164,0,0,1-.03-.007.053.053,0,0,0-.06,0,.174.174,0,0,1-.036.024.038.038,0,0,0-.025.032l-.009.053c0,.013,0,.012-.016.016h0c-.011,0-.017,0-.024-.01a.472.472,0,0,0-.029-.048.034.034,0,0,0-.02-.013l-.069-.013a.033.033,0,0,0-.024,0l-.049.035s-.009.006-.014,0-.021-.008-.02-.02a.137.137,0,0,1,.009-.04.056.056,0,0,0-.005-.057c-.011-.014-.02-.029-.03-.043a.037.037,0,0,0-.028-.02l-.056-.01-.009,0a.028.028,0,0,1,.007-.039c.015-.01.031-.017.045-.027a.041.041,0,0,0,.016-.025l.012-.062a.036.036,0,0,0-.007-.033.494.494,0,0,0-.034-.046.007.007,0,0,1,0-.01l.011-.018a.011.011,0,0,1,.016,0,.064.064,0,0,0,.018.006l.017,0a.052.052,0,0,0,.056-.006.368.368,0,0,1,.053-.034.035.035,0,0,0,.019-.026.2.2,0,0,0,.005-.043c0-.021,0-.023.024-.026a.012.012,0,0,1,.014.007l.021.036a.051.051,0,0,0,.03.029l.072.013a.03.03,0,0,0,.024-.005c.013-.009.026-.018.038-.028s.016-.013.032,0l.006,0a.013.013,0,0,1,.006.016c0,.02-.011.038-.014.058a.032.032,0,0,0,.005.027c.014.018.026.037.039.056a.046.046,0,0,0,.043.015.045.045,0,0,0,.027-.062.181.181,0,0,0-.02-.033.02.02,0,0,1,0-.021.3.3,0,0,0,.015-.059.039.039,0,0,0-.014-.04.339.339,0,0,0-.042-.033.168.168,0,0,0-.066-.031.029.029,0,0,0-.024.006c-.017.012-.034.023-.05.036a.025.025,0,0,1-.038-.005c-.01-.017-.021-.034-.03-.052a.042.042,0,0,0-.044-.021.436.436,0,0,0-.1.014.046.046,0,0,0-.036.043.15.15,0,0,1,0,.037c0,.025,0,.025-.025.039a.017.017,0,0,1-.019,0,.09.09,0,0,0-.028-.008.164.164,0,0,1-.021-.006.039.039,0,0,0-.03,0c-.016,0-.024.019-.034.03a.359.359,0,0,0-.044.07.046.046,0,0,0,0,.049C7.334,212.5,7.348,212.517,7.36,212.534Z"/><path class="d" d="M8.323,212.907a.151.151,0,0,0,.084-.01.165.165,0,0,0,.091-.087.17.17,0,0,0,.014-.059.131.131,0,0,0-.014-.075.123.123,0,0,0-.032-.049v0a.112.112,0,0,0-.049-.037.2.2,0,0,0-.053-.014.108.108,0,0,0-.044,0,.162.162,0,0,0-.128.1.157.157,0,0,0,.012.143A.16.16,0,0,0,8.323,212.907Z"/><path class="d" d="M7.715,212.457a.164.164,0,0,0-.194.13.167.167,0,0,0,.328.063A.164.164,0,0,0,7.715,212.457Z"/><path class="d" d="M8.9,212.2a.992.992,0,0,0-1.5-.324Q8.158,212.018,8.9,212.2Z"/><path class="h" d="M7.019,212.493A1.01,1.01,0,1,0,8.9,212.2q-.741-.18-1.5-.324A1.019,1.019,0,0,0,7.019,212.493Zm.345-.128c.01-.011.018-.025.034-.03a.039.039,0,0,1,.03,0,.164.164,0,0,0,.021.006.09.09,0,0,1,.028.008.017.017,0,0,0,.019,0c.021-.014.021-.014.025-.039a.15.15,0,0,0,0-.037.046.046,0,0,1,.036-.043.436.436,0,0,1,.1-.014.042.042,0,0,1,.044.021c.009.018.02.035.03.052a.025.025,0,0,0,.038.005c.016-.013.033-.024.05-.036a.029.029,0,0,1,.024-.006.168.168,0,0,1,.066.031.339.339,0,0,1,.042.033.039.039,0,0,1,.014.04.3.3,0,0,1-.015.059.02.02,0,0,0,0,.021.181.181,0,0,1,.02.033.045.045,0,0,1-.027.062.046.046,0,0,1-.043-.015c-.013-.019-.025-.038-.039-.056a.032.032,0,0,1-.005-.027c0-.02.01-.038.014-.058a.013.013,0,0,0-.006-.016l-.006,0c-.016-.011-.017-.012-.032,0s-.025.019-.038.028a.03.03,0,0,1-.024.005l-.072-.013a.051.051,0,0,1-.03-.029l-.021-.036a.012.012,0,0,0-.014-.007c-.021,0-.024.005-.024.026a.2.2,0,0,1-.005.043.035.035,0,0,1-.019.026.368.368,0,0,0-.053.034.052.052,0,0,1-.056.006l-.017,0a.064.064,0,0,1-.018-.006.011.011,0,0,0-.016,0l-.011.018a.007.007,0,0,0,0,.01.494.494,0,0,1,.034.046.036.036,0,0,1,.007.033l-.012.062a.041.041,0,0,1-.016.025c-.014.01-.03.017-.045.027a.028.028,0,0,0-.007.039l.009,0,.056.01a.037.037,0,0,1,.028.02c.01.014.019.029.03.043a.056.056,0,0,1,.005.057.137.137,0,0,0-.009.04c0,.012.012.014.02.02s.01,0,.014,0l.049-.035a.033.033,0,0,1,.024,0l.069.013a.034.034,0,0,1,.02.013.472.472,0,0,1,.029.048c.007.01.013.014.024.01h0c.014,0,.013,0,.016-.016l.009-.053a.038.038,0,0,1,.025-.032.174.174,0,0,0,.036-.024.053.053,0,0,1,.06,0,.164.164,0,0,0,.03.007l.008,0,.05-.055,0-.01a.238.238,0,0,0,.006-.037c0-.018.005-.036.006-.054a.059.059,0,0,1,.018-.047c.017-.015.031-.033.047-.049a.012.012,0,0,0,0-.013c-.005-.016-.009-.033-.015-.049a.044.044,0,0,1,.015-.054.431.431,0,0,1,.085-.056.046.046,0,0,1,.044.006.551.551,0,0,1,.049.035.015.015,0,0,0,.011,0c.017,0,.024-.011.031-.024a.43.43,0,0,1,.026-.047.043.043,0,0,1,.042-.017.386.386,0,0,1,.083.012.068.068,0,0,1,.044.026.086.086,0,0,1,.009.035l.007.045,0,0,.017.012h.007a.058.058,0,0,1,.026-.009l.036-.011h.006a.07.07,0,0,1,.059.037.5.5,0,0,1,.043.066.049.049,0,0,1-.008.052l-.033.046a.011.011,0,0,0,0,.011c0,.019.015.026.03.033a.328.328,0,0,1,.041.023.044.044,0,0,1,.017.045c-.005.033-.012.066-.019.1a.046.046,0,0,1-.044.033.544.544,0,0,0-.056.009l0,0-.01.017c0,.006,0,.012,0,.018s.011.033.014.049a.053.053,0,0,1-.02.054.574.574,0,0,1-.064.046.115.115,0,0,1-.032.014.047.047,0,0,1-.035-.01l-.046-.034a.026.026,0,0,0-.037.011c-.011.018-.019.037-.03.055a.044.044,0,0,1-.042.018.415.415,0,0,1-.086-.013.062.062,0,0,1-.043-.025.073.073,0,0,1-.008-.033c0-.009,0-.019-.005-.029v0c0-.015-.007-.022-.018-.029a.017.017,0,0,0-.012,0l-.056.017a.051.051,0,0,1-.051-.014.263.263,0,0,1-.022-.025.043.043,0,0,1,.022-.066.045.045,0,0,1,.045.011.011.011,0,0,0,.012,0l.054-.016a.037.037,0,0,1,.031,0l.056.035a.04.04,0,0,1,.019.032c0,.019.007.037.008.056l0,0,.026.005a.008.008,0,0,0,.01-.006c.008-.017.018-.032.026-.048a.049.049,0,0,1,.039-.024.313.313,0,0,0,.044-.01.048.048,0,0,1,.047.009.356.356,0,0,1,.039.029.009.009,0,0,0,.012,0h0c.007-.005.019-.009.022-.017s0-.017-.007-.026-.007-.023-.01-.035a.052.052,0,0,1,.012-.043.186.186,0,0,0,.022-.035.049.049,0,0,1,.04-.028l.054-.008,0,0,.005-.025a.011.011,0,0,0-.008-.012l-.046-.025a.044.044,0,0,1-.024-.035.419.419,0,0,0-.011-.051.046.046,0,0,1,.008-.041l.031-.043v-.01l-.014-.021s0,0-.01,0a.554.554,0,0,1-.058.017.037.037,0,0,1-.032-.006.3.3,0,0,0-.048-.031.041.041,0,0,1-.023-.032l-.008-.048h0s0-.01,0-.012l-.014,0c-.023,0-.022,0-.033.016l-.02.038a.053.053,0,0,1-.044.023.288.288,0,0,0-.04.009.049.049,0,0,1-.041-.007l-.044-.032H8.161a.086.086,0,0,0-.02.013v.01a.371.371,0,0,1,.016.047.045.045,0,0,1-.008.042l-.063.067a.017.017,0,0,0-.005.014v.009c-.007.03-.008.062-.013.092a.064.064,0,0,1-.016.033l-.08.088a.041.041,0,0,1-.048.009.118.118,0,0,0-.02,0,.1.1,0,0,1-.024-.007h0a.039.039,0,0,0-.024.021c0,.021-.009.042-.012.064a.039.039,0,0,1-.033.035.4.4,0,0,1-.1.018A.048.048,0,0,1,7.663,213l-.032-.055,0,0c-.011,0-.021-.006-.032,0s-.028.02-.042.032a.047.047,0,0,1-.054,0,.336.336,0,0,1-.089-.061.04.04,0,0,1-.012-.037c0-.021.012-.04.015-.061a.029.029,0,0,0-.031-.035.2.2,0,0,1-.059-.009.039.039,0,0,1-.026-.032.566.566,0,0,1-.019-.091.115.115,0,0,1,.006-.037l.008-.009a.412.412,0,0,1,.053-.032.031.031,0,0,0,.019-.03l0-.01c-.012-.017-.026-.033-.038-.05a.046.046,0,0,1,0-.049A.359.359,0,0,1,7.364,212.365Zm.485.285a.167.167,0,0,1-.328-.063.167.167,0,0,1,.328.063Zm.342.033a.162.162,0,0,1,.128-.1.108.108,0,0,1,.044,0,.2.2,0,0,1,.053.014.112.112,0,0,1,.049.037v0a.123.123,0,0,1,.032.049.131.131,0,0,1,.014.075.17.17,0,0,1-.014.059.165.165,0,0,1-.091.087.151.151,0,0,1-.084.01.16.16,0,0,1-.12-.081A.157.157,0,0,1,8.191,212.683Z"/><path class="i" d="M-1.383,242.583a.734.734,0,0,0-.854.59.734.734,0,0,0,.582.86.735.735,0,0,0,.854-.59A.735.735,0,0,0-1.383,242.583Zm-.167.582.036.051-.09.062-.036-.053v-.007l.013-.071.073.014Zm-.053.266c-.02.014-.039.029-.059.041a.212.212,0,0,1-.158.018.22.22,0,0,1-.151-.116.232.232,0,0,1,.186-.345.222.222,0,0,1,.211.1l0,0-.074-.013-.013.073-.01-.01a.131.131,0,0,0-.122-.045.106.106,0,0,0-.089.075.126.126,0,0,0,.008.112.129.129,0,0,0,.189.029l.023-.018.216-.149a.026.026,0,0,1,.021,0l.064.012c0,.025-.009.049-.014.073l-.009.008Zm.554,0a.235.235,0,0,1-.215.159.219.219,0,0,1-.2-.1c-.017-.028-.036-.055-.053-.082l0-.006.089-.061a.76.76,0,0,1,.047.073.13.13,0,0,0,.2.035.128.128,0,0,0,.006-.175.13.13,0,0,0-.154-.023l-.013.006.014-.073-.075-.014.019-.012a.228.228,0,0,1,.122-.035.231.231,0,0,1,.153.065A.227.227,0,0,1-1.049,243.43Z"/><path class="e" d="M4.731,212.066a.737.737,0,1,0,.582.859A.733.733,0,0,0,4.731,212.066Zm-.167.581.036.051-.09.062-.036-.053,0-.007.014-.071.073.014Zm-.053.266c-.02.014-.039.029-.059.041a.213.213,0,0,1-.158.019.226.226,0,0,1-.152-.117.232.232,0,0,1,.187-.345.219.219,0,0,1,.21.1l0,.006-.074-.014-.014.073-.009-.01a.129.129,0,0,0-.122-.044.105.105,0,0,0-.089.074.124.124,0,0,0,.2.141l.023-.018.216-.148a.027.027,0,0,1,.021,0c.021,0,.042.008.064.012-.005.025-.009.049-.014.073l-.009.008Zm.554,0a.237.237,0,0,1-.215.16.219.219,0,0,1-.2-.1c-.017-.027-.036-.055-.054-.082l0-.006.089-.061c.015.023.033.047.047.073a.13.13,0,0,0,.2.035.128.128,0,0,0,.006-.175.13.13,0,0,0-.154-.023l-.013.007.013-.073-.074-.015.019-.012a.228.228,0,0,1,.122-.035.231.231,0,0,1,.153.065A.228.228,0,0,1,5.065,212.912Z"/><path class="j" d="M10.169,227.088a2.412,2.412,0,1,0,1.9,2.812A2.4,2.4,0,0,0,10.169,227.088Zm-1.258,3.093a.068.068,0,0,1-.05.011.064.064,0,0,1-.043-.028l-.649-.949a.067.067,0,0,1,.017-.094l.949-.649a.071.071,0,0,1,.051-.011.069.069,0,0,1,.043.029l.141.205a.069.069,0,0,1-.018.094l-.688.47.471.688a.068.068,0,0,1-.018.094Zm.4.385a.065.065,0,0,1-.072.035l-.018-.006-.133-.068a.064.064,0,0,1-.033-.039.067.067,0,0,1,0-.052l1.067-2.085a.067.067,0,0,1,.09-.029l.133.067a.069.069,0,0,1,.033.04.065.065,0,0,1,0,.051Zm1.945-.77-.949.649a.07.07,0,0,1-.051.01.066.066,0,0,1-.043-.028l-.141-.206a.068.068,0,0,1,.018-.094l.688-.47-.471-.688a.067.067,0,0,1,.018-.093l.206-.141a.07.07,0,0,1,.094.018l.648.949A.067.067,0,0,1,11.261,229.8Z"/><path class="k" d="M14.068,224.877a.022.022,0,0,0-.022.034.021.021,0,0,0,.03.006.022.022,0,0,0,.006-.031A.022.022,0,0,0,14.068,224.877Z"/><path class="k" d="M13.719,224.225a.067.067,0,0,0-.065.05.064.064,0,0,0,.011.046l.015-.013a.019.019,0,0,1,.022.032.039.039,0,0,0-.017.025.046.046,0,0,0,.041.051.048.048,0,0,0,.058-.032l.007-.041a.041.041,0,0,0-.025-.045.019.019,0,1,1,.019-.034.08.08,0,0,1,.019.013l.019-.1a.021.021,0,0,1,.023-.016.019.019,0,0,1,.015.023l0,.024a.091.091,0,0,1,.052,0,.018.018,0,0,1,.015.022.019.019,0,0,1-.022.016.046.046,0,0,0-.057.032l-.023.122a.046.046,0,0,0,.041.051.047.047,0,0,0,.058-.033.045.045,0,0,0-.025-.045.019.019,0,0,1-.008-.026.019.019,0,0,1,.026-.008.083.083,0,0,1,.042.05.052.052,0,0,0,.024-.033.055.055,0,0,0-.021-.05.016.016,0,0,1-.007-.018.018.018,0,0,1,.013-.015.054.054,0,0,0,.038-.039.058.058,0,0,0-.051-.063h0a.061.061,0,0,0-.027,0,.019.019,0,0,1-.023-.015.019.019,0,0,1,.014-.023.123.123,0,0,1,.033,0l.005-.011a.036.036,0,0,0-.032-.039.036.036,0,0,0-.044.025.019.019,0,0,1-.038-.008.035.035,0,0,0-.032-.038.036.036,0,0,0-.044.024.032.032,0,0,0,0,.02h0a.021.021,0,0,1-.009.024.02.02,0,0,1-.013,0h0a.058.058,0,0,0-.07.041.045.045,0,0,0,.005.03.117.117,0,0,1,.038-.007.02.02,0,0,1,.02.018A.019.019,0,0,1,13.719,224.225Z"/><path class="k" d="M13.316,223.958a.022.022,0,0,0-.008.044.022.022,0,0,0,.008-.044Z"/><path class="k" d="M14.479,224.032a.023.023,0,0,0,.016,0,.019.019,0,0,0,.009-.014.025.025,0,0,0,0-.017.023.023,0,0,0-.014-.009.021.021,0,0,0-.017,0,.023.023,0,0,0-.009.014.022.022,0,0,0,.018.025Z"/><path class="k" d="M13.18,224.458a.018.018,0,0,0-.016,0,.021.021,0,0,0-.01.014.022.022,0,0,0,.018.025.021.021,0,0,0,.016,0,.024.024,0,0,0,.01-.014.025.025,0,0,0,0-.017A.02.02,0,0,0,13.18,224.458Z"/><path class="k" d="M13.568,224.741a.023.023,0,0,0-.026.018.022.022,0,0,0,.044.008A.023.023,0,0,0,13.568,224.741Z"/><path class="k" d="M14.343,224.532a.021.021,0,0,0,.025-.017.021.021,0,0,0-.017-.026.023.023,0,0,0-.026.018A.022.022,0,0,0,14.343,224.532Z"/><path class="k" d="M14,223.262a1,1,0,1,0,.788,1.164A.994.994,0,0,0,14,223.262Zm.094,1.687a.061.061,0,0,1-.045.009.057.057,0,0,1-.039-.025.062.062,0,0,1,0-.071l-.1-.148a.083.083,0,0,1-.013-.061l.011-.057-.043-.009-.016.083a.019.019,0,0,1-.038-.007l.016-.083-.043-.008-.058.306a.019.019,0,0,1-.038-.007l.058-.306-.044-.008-.015.082a.019.019,0,1,1-.038-.007l.015-.082-.043-.008-.031.168a.062.062,0,1,1-.038-.007l.031-.168-.042-.008a.1.1,0,0,1-.081-.119l.008-.042-.057-.011a.04.04,0,0,0-.032.007l-.149.1a.067.067,0,0,1,0,.028.061.061,0,0,1-.071.048.061.061,0,0,1-.049-.07.059.059,0,0,1,.026-.039.06.06,0,0,1,.045-.01.063.063,0,0,1,.025.011l.149-.1a.082.082,0,0,1,.061-.013l.057.011.008-.043-.082-.016a.019.019,0,0,1-.016-.022.02.02,0,0,1,.023-.016l.082.016.008-.044-.305-.057a.019.019,0,1,1,.007-.038l.3.057.009-.043-.083-.015a.02.02,0,0,1-.015-.023.019.019,0,0,1,.022-.015l.083.015.008-.043-.168-.031a.063.063,0,0,1-.064.03.061.061,0,1,1,.071-.068l.168.031.008-.042a.076.076,0,0,1,.008-.024.019.019,0,0,1,.025-.01.02.02,0,0,1,.01.026l0,.015-.084.447a.064.064,0,0,0,.05.074l.447.084h.016a.018.018,0,0,1,.02.018.019.019,0,0,1-.018.02.1.1,0,0,1-.025,0l-.042-.008-.011.057a.041.041,0,0,0,.007.032l.1.148a.062.062,0,0,1,.067.024A.061.061,0,0,1,14.1,224.949Zm-.461-.792a.093.093,0,0,1,.087-.073.081.081,0,0,1,0-.016.074.074,0,0,1,.089-.055.081.081,0,0,1,.053.034.079.079,0,0,1,.061-.013.075.075,0,0,1,.063.084l-.005.015a.094.094,0,0,1,.055.1.085.085,0,0,0-.023.122.093.093,0,0,1-.06.068.086.086,0,0,1-.1.058.093.093,0,0,1-.063-.043.09.09,0,0,1-.074.017.084.084,0,0,1-.072-.1h0a.1.1,0,0,1-.031-.09.1.1,0,0,1,.031-.054A.087.087,0,0,1,13.637,224.157Zm.617.064a.02.02,0,0,1,.016.023.02.02,0,0,1-.023.015l-.083-.015-.008.043.306.057a.019.019,0,1,1-.007.038l-.306-.057-.008.043.083.016a.019.019,0,0,1,.015.022.02.02,0,0,1-.023.016l-.082-.016-.008.043.168.032a.06.06,0,0,1,.064-.03.061.061,0,1,1-.071.068l-.168-.032-.008.042a.1.1,0,0,1-.008.025.019.019,0,0,1-.021.01h-.005a.02.02,0,0,1-.009-.026l.005-.015.084-.446a.063.063,0,0,0-.051-.074l-.446-.084h-.016a.019.019,0,0,1-.021-.018.021.021,0,0,1,.018-.021.114.114,0,0,1,.026,0l.042.008.011-.058a.042.042,0,0,0-.007-.031l-.1-.149a.05.05,0,0,1-.027,0,.054.054,0,0,1-.039-.025.06.06,0,1,1,.1,0l.1.149a.082.082,0,0,1,.013.061l-.011.057.043.008.015-.083a.02.02,0,0,1,.023-.015.02.02,0,0,1,.015.023l-.015.082.043.008.058-.306a.019.019,0,0,1,.022-.015.02.02,0,0,1,.016.023l-.058.305.043.008.016-.082a.019.019,0,0,1,.038.007l-.016.083.044.008.031-.168a.061.061,0,0,1,.041-.113.061.061,0,0,1,.048.071.062.062,0,0,1-.051.049l-.032.168.042.008a.1.1,0,0,1,.082.119l-.008.042.057.01a.04.04,0,0,0,.032-.006l.148-.1a.062.062,0,0,1,0-.027.059.059,0,0,1,.026-.039.06.06,0,0,1,.045-.01.061.061,0,0,1,.048.071.061.061,0,0,1-.025.039.059.059,0,0,1-.045.009.05.05,0,0,1-.026-.011l-.148.1a.082.082,0,0,1-.061.012l-.057-.01-.008.043Z"/><path class="k" d="M14.1,223.706a.023.023,0,0,0-.026.018.022.022,0,0,0,.018.025.02.02,0,0,0,.025-.017A.021.021,0,0,0,14.1,223.706Z"/><path class="k" d="M13.6,223.57a.022.022,0,0,0-.017,0,.021.021,0,0,0-.005.03.021.021,0,0,0,.03.006.022.022,0,0,0,.006-.031A.022.022,0,0,0,13.6,223.57Z"/><path class="l" d="M1.164,221.517a.092.092,0,1,0,.058.038A.092.092,0,0,0,1.164,221.517Z"/><path class="l" d="M-.282,218.814a.272.272,0,0,0-.27.207.246.246,0,0,0,.046.189.329.329,0,0,1,.06-.052.08.08,0,0,1,.112.021.08.08,0,0,1-.022.111.165.165,0,0,0-.07.1.2.2,0,0,0,.173.213.2.2,0,0,0,.238-.135l.032-.169a.183.183,0,0,0-.1-.188.08.08,0,0,1-.033-.108.079.079,0,0,1,.108-.033.381.381,0,0,1,.08.056l.082-.437a.08.08,0,0,1,.158.029l-.019.1A.392.392,0,0,1,.5,218.7a.08.08,0,0,1-.03.158.2.2,0,0,0-.238.135l-.095.505a.2.2,0,0,0,.173.213.2.2,0,0,0,.238-.136.181.181,0,0,0-.1-.188.08.08,0,0,1,.075-.141.359.359,0,0,1,.176.205.2.2,0,0,0,.1-.135.212.212,0,0,0-.087-.2.081.081,0,0,1,.026-.14.213.213,0,0,0,.156-.16.241.241,0,0,0-.21-.263H.678a.287.287,0,0,0-.113,0,.08.08,0,0,1-.095-.061.081.081,0,0,1,.061-.1.477.477,0,0,1,.136-.008.12.12,0,0,0,.021-.047.15.15,0,0,0-.133-.162.15.15,0,0,0-.183.1.079.079,0,0,1-.094.064.08.08,0,0,1-.064-.093.15.15,0,0,0-.133-.162.151.151,0,0,0-.183.1.122.122,0,0,0,.015.081h0l0,0v.005a.081.081,0,0,1-.035.1.088.088,0,0,1-.055.009h0a.241.241,0,0,0-.291.169.189.189,0,0,0,.021.127.522.522,0,0,1,.155-.032.08.08,0,0,1,.083.077A.08.08,0,0,1-.282,218.814Z"/><path class="l" d="M-1.956,217.706a.09.09,0,0,0-.106.073.091.091,0,0,0,.073.106.091.091,0,0,0,.106-.073A.091.091,0,0,0-1.956,217.706Z"/><path class="l" d="M2.868,218.013a.09.09,0,0,0,.107-.073.091.091,0,0,0-.015-.068.091.091,0,0,0-.126-.024.1.1,0,0,0-.039.059.091.091,0,0,0,.015.068A.089.089,0,0,0,2.868,218.013Z"/><path class="l" d="M-2.519,219.779a.1.1,0,0,0-.069.014.094.094,0,0,0-.038.059.1.1,0,0,0,.014.068.091.091,0,0,0,.059.038.086.086,0,0,0,.068-.014.091.091,0,0,0,.038-.058.089.089,0,0,0-.014-.069A.092.092,0,0,0-2.519,219.779Z"/><path class="l" d="M-.909,220.953a.092.092,0,0,0-.107.073.092.092,0,0,0,.073.107.092.092,0,0,0,.106-.073A.091.091,0,0,0-.909,220.953Z"/><path class="l" d="M2.3,220.086a.091.091,0,1,0-.072-.106A.091.091,0,0,0,2.3,220.086Z"/><path class="l" d="M.9,214.817a4.124,4.124,0,0,0-4.8,3.313,4.125,4.125,0,0,0,3.269,4.83,4.124,4.124,0,0,0,4.8-3.314A4.122,4.122,0,0,0,.9,214.817Zm.391,7a.25.25,0,0,1-.188.04.251.251,0,0,1-.155-.4l-.42-.615a.334.334,0,0,1-.053-.253l.044-.237-.179-.034-.064.342a.08.08,0,0,1-.158-.029l.064-.343L0,220.253l-.238,1.268a.08.08,0,0,1-.094.064.081.081,0,0,1-.064-.094l.239-1.268-.18-.034-.064.343a.081.081,0,0,1-.094.064.082.082,0,0,1-.064-.094l.065-.342-.179-.034-.131.7a.254.254,0,0,1,.124.266.251.251,0,0,1-.294.2.251.251,0,0,1-.2-.294.25.25,0,0,1,.212-.2l.131-.7L-1,220.064a.424.424,0,0,1-.337-.494l.032-.174-.237-.044a.174.174,0,0,0-.133.028l-.615.42a.262.262,0,0,1,0,.115.25.25,0,0,1-.105.161.254.254,0,0,1-.189.04.253.253,0,0,1-.161-.1.249.249,0,0,1-.039-.189.246.246,0,0,1,.105-.161.245.245,0,0,1,.188-.039.243.243,0,0,1,.105.046l.616-.421a.336.336,0,0,1,.252-.053l.238.045.034-.179-.343-.065a.08.08,0,0,1-.064-.093.081.081,0,0,1,.094-.064l.342.064.034-.179-1.269-.239a.08.08,0,0,1-.064-.093.081.081,0,0,1,.094-.064l1.268.238.034-.179-.342-.064a.08.08,0,0,1-.064-.094.081.081,0,0,1,.094-.064l.342.064.033-.179-.7-.131a.252.252,0,0,1-.266.125.253.253,0,0,1-.2-.294.253.253,0,0,1,.294-.2.254.254,0,0,1,.2.213l.7.131.033-.174a.416.416,0,0,1,.032-.1.08.08,0,0,1,.107-.038.079.079,0,0,1,.038.106.288.288,0,0,0-.02.063l-.348,1.853a.262.262,0,0,0,.21.306l1.852.348a.245.245,0,0,0,.066,0,.08.08,0,1,1,.011.16.417.417,0,0,1-.106-.006l-.174-.033-.045.238a.172.172,0,0,0,.028.132l.421.616a.251.251,0,0,1,.21.449Zm-1.912-3.286a.387.387,0,0,1,.36-.3.235.235,0,0,1,0-.065.308.308,0,0,1,.37-.23.336.336,0,0,1,.218.143.329.329,0,0,1,.255-.054.308.308,0,0,1,.261.348.249.249,0,0,1-.019.062.389.389,0,0,1,.225.413.363.363,0,0,1-.157.232.367.367,0,0,1,.062.273.375.375,0,0,1-.25.279.357.357,0,0,1-.42.243.381.381,0,0,1-.261-.179.381.381,0,0,1-.308.072.353.353,0,0,1-.3-.4h0a.413.413,0,0,1-.127-.372.4.4,0,0,1,.128-.224A.353.353,0,0,1-.623,218.528Zm2.559.269a.08.08,0,1,1-.029.157l-.342-.064-.034.179,1.268.239a.08.08,0,1,1-.029.157L1.5,219.227l-.033.179.342.064a.082.082,0,0,1,.064.094.08.08,0,0,1-.094.064l-.342-.064-.034.179.7.131a.251.251,0,1,1,.173.37.254.254,0,0,1-.2-.212l-.7-.132-.033.174a.4.4,0,0,1-.032.1.081.081,0,0,1-.088.044l-.019-.006a.08.08,0,0,1-.039-.106.234.234,0,0,0,.021-.063l.348-1.853a.264.264,0,0,0-.21-.306l-1.852-.348a.245.245,0,0,0-.066,0,.081.081,0,0,1-.086-.075.08.08,0,0,1,.075-.085.471.471,0,0,1,.106.006l.174.033.045-.238a.177.177,0,0,0-.028-.132l-.421-.616a.236.236,0,0,1-.115.005.244.244,0,0,1-.161-.105.251.251,0,0,1,.066-.349.252.252,0,0,1,.349.065.251.251,0,0,1-.007.294l.421.615a.334.334,0,0,1,.053.253l-.044.238.179.033.064-.342a.08.08,0,0,1,.158.03l-.065.342.18.034.238-1.269a.08.08,0,0,1,.158.03L.5,217.569l.18.034.064-.342a.08.08,0,0,1,.157.029l-.064.342.179.034.131-.7a.252.252,0,1,1,.37-.173.25.25,0,0,1-.212.2l-.131.7.174.032a.424.424,0,0,1,.337.494l-.032.174.237.044a.178.178,0,0,0,.133-.027l.615-.421a.262.262,0,0,1,0-.115.25.25,0,0,1,.105-.161.251.251,0,0,1,.35.065.249.249,0,0,1,.039.189.246.246,0,0,1-.105.161.25.25,0,0,1-.188.04.257.257,0,0,1-.105-.047l-.616.421a.331.331,0,0,1-.252.053l-.238-.045-.034.18Z"/><path class="l" d="M1.292,216.66a.091.091,0,1,0-.034.179.093.093,0,0,0,.107-.073A.092.092,0,0,0,1.292,216.66Z"/><path class="l" d="M-.781,216.1a.09.09,0,0,0-.069.014.092.092,0,0,0-.024.127.093.093,0,0,0,.127.024.092.092,0,0,0,.024-.127A.087.087,0,0,0-.781,216.1Z"/><circle class="m" cx="0.143" cy="0.143" r="0.143" transform="translate(5.194 236.84)"/><path class="m" d="M5.312,234.562a1.9,1.9,0,1,0,1.5,2.219A1.9,1.9,0,0,0,5.312,234.562Zm-.329.98c.4.075.7.28.664.458s-.385.262-.786.187-.7-.281-.664-.459S4.582,235.467,4.983,235.542Zm.647.547-.046.246a.194.194,0,0,1-.092.122H5.486l-.1-.019a.136.136,0,0,0-.149.076.12.12,0,0,0-.064-.031.134.134,0,0,0-.1.021l-.064.044a1.77,1.77,0,0,1-.209-.025c-.4-.075-.7-.281-.664-.459l.047-.246c-.034.178.263.383.664.458S5.6,236.267,5.63,236.089Zm-.789,1.125a1.433,1.433,0,0,1-.168-.022c-.4-.075-.7-.281-.664-.459l.046-.246c-.034.178.264.383.664.458.023,0,.047.009.07.012a.191.191,0,0,1,.052.257Zm-.031-.383-.007.037-.068-.011c-.4-.075-.7-.281-.664-.459l.047-.246c-.034.178.264.383.664.458.052.01.1.017.152.022a.133.133,0,0,0,0,.088A.136.136,0,0,0,4.81,236.831Zm.919.277-.124,0a.277.277,0,0,1-.047.073l.052.112-.084.058-.087-.088a.308.308,0,0,1-.085.018l-.044.115-.1-.019,0-.122a.336.336,0,0,1-.074-.048l-.111.05-.058-.084.088-.085A.306.306,0,0,1,5.039,237l-.114-.043.019-.1.122,0a.262.262,0,0,1,.048-.074l-.05-.112.084-.057.085.088a.306.306,0,0,1,.086-.018l.042-.115.1.019v.123a.28.28,0,0,1,.073.048l.112-.052.057.084-.088.087a.307.307,0,0,1,.018.085l.116.042Z"/><rect class="n" width="0.044" height="0.044" transform="matrix(0.185, -0.983, 0.983, 0.185, -9.588, 218.777)"/><path class="n" d="M-9.617,219.282a.326.326,0,0,0-.261-.382.328.328,0,0,0-.382.261.328.328,0,0,0,.261.383A.327.327,0,0,0-9.617,219.282Zm-.262.217a.241.241,0,0,1-.046.006l.047-.25.043.008Zm.1-.04a.287.287,0,0,1-.049.026l.056-.3.043.008Zm-.35-.031a.248.248,0,0,1-.036-.042l.042-.222.042.008Zm.079.053a.311.311,0,0,1-.04-.022l.028-.15.043.008Zm.039-.207-.043-.008.024-.129-.128-.024-.04.213a.278.278,0,0,1-.015-.157.284.284,0,0,1,.331-.226.285.285,0,0,1,.227.331.288.288,0,0,1-.071.14l.048-.255-.129-.024-.016.086-.043-.008.04-.215-.128-.024Zm.091-.249.043.008-.088.471-.022,0-.021-.005Z"/><path class="n" d="M-9.927,218.217a.988.988,0,0,0-1.149.793.987.987,0,0,0,.783,1.156.987.987,0,0,0,1.148-.793A.987.987,0,0,0-9.927,218.217Zm-.5.313a.13.13,0,0,1,.1.153.13.13,0,0,1-.153.1.13.13,0,0,1-.1-.153A.13.13,0,0,1-10.43,218.53ZM-10.5,219l-.024.016-.017-.024.047-.161.009,0Zm-.232-.058a.152.152,0,0,1,.178-.122l.016,0-.051.176.053.078.078-.053.016-.183.257.048a.407.407,0,0,0-.062.055l-.072-.013a.077.077,0,0,0-.09.061l-.026.139-.193-.036a.021.021,0,0,1-.017-.026l.028-.15-.043-.008-.024.129-.065-.012Zm-.025.129.069.013a.065.065,0,0,0,.052.054l.247.046a.034.034,0,0,1,.026.038.033.033,0,0,1-.038.027l-.269-.051A.109.109,0,0,1-10.754,219.069Zm.2.682a.043.043,0,0,1-.051.035.044.044,0,0,1-.035-.051l.073-.386-.043-.008-.072.386a.045.045,0,0,1-.051.035.043.043,0,0,1-.035-.051l.088-.472.215.04Zm.061-.086.029-.154.051-.035.062.091Zm.161-.148-.028-.04.062-.042a.35.35,0,0,0,.027.04Zm.024-.364a.371.371,0,0,1,.433-.3.371.371,0,0,1,.3.433.371.371,0,0,1-.433.3A.372.372,0,0,1-10.3,219.153Zm.584.554a.109.109,0,0,1-.127.088.11.11,0,0,1-.087-.128.115.115,0,0,1,.011-.031.422.422,0,0,0,.158-.038A.108.108,0,0,1-9.719,219.707Zm.12.072-.044,0-.012,0-.014.023.019.051-.08.055-.041-.037-.029.006-.023.05-.1-.018,0-.043,0-.013-.022-.014-.052.019-.054-.08.036-.041-.006-.028-.05-.023.014-.072.042.011.046,0-.007.024a.152.152,0,0,0,.122.178.152.152,0,0,0,.178-.122.15.15,0,0,0-.047-.14.363.363,0,0,0,.073-.056l.05.073-.037.041.006.028.05.023Zm.1-.9-.193-.037.02-.107a.109.109,0,0,1,.127-.087l.086.016a.109.109,0,0,1,.087.128A.109.109,0,0,1-9.5,218.883Z"/><rect class="n" width="0.044" height="0.044" transform="matrix(0.185, -0.983, 0.983, 0.185, -9.502, 218.793)"/><rect class="o" width="0.116" height="0.58" transform="matrix(0.185, -0.983, 0.983, 0.185, 9.198, 217.206)"/><rect class="o" width="0.116" height="0.116" transform="matrix(0.185, -0.983, 0.983, 0.185, 9.611, 217.519)"/><rect class="o" width="0.116" height="0.58" transform="matrix(0.185, -0.983, 0.983, 0.185, 9.326, 216.522)"/><rect class="o" width="0.116" height="0.58" transform="matrix(0.185, -0.983, 0.983, 0.185, 9.24, 216.978)"/><path class="o" d="M11.061,216.081a.175.175,0,0,0,.2-.139.174.174,0,0,0-.342-.065A.176.176,0,0,0,11.061,216.081Zm.043-.228a.057.057,0,0,1,.046.067.058.058,0,1,1-.114-.021A.057.057,0,0,1,11.1,215.853Z"/><rect class="o" width="0.116" height="0.58" transform="matrix(0.185, -0.983, 0.983, 0.185, 9.283, 216.75)"/><path class="o" d="M11.973,217.821l-.06-.088-.1.065.125.183.386-.264-.065-.1Z"/><path class="o" d="M11.515,213.663a2.634,2.634,0,1,0,2.079,3.07A2.622,2.622,0,0,0,11.515,213.663Zm-1.687,3.956a.058.058,0,0,1-.068.046l-.684-.128a.058.058,0,0,1-.046-.068l.214-1.14a.059.059,0,0,1,.068-.046l.684.128a.059.059,0,0,1,.046.068Zm.8-2.163.212-.146.109.1.075-.015.061-.133.253.047.009.146.064.042.137-.051.145.213-.1.109.016.075.133.061-.048.253-.116.007-.033.006-.038.06.05.136-.212.146-.109-.1-.075.015-.061.133-.253-.047-.007-.117-.006-.032-.06-.039-.137.051-.145-.213.1-.109-.016-.075-.132-.061.047-.253.146-.008.042-.065Zm1.335,2.741a.465.465,0,0,1-.377-.425l-1.383-.26.064-.342.043-.228.513.1a1.16,1.16,0,1,0-.926-1.354l-.01.057.049.009-.2.165-.127-.226.05.009.01-.057a1.392,1.392,0,1,1,1.111,1.625l.917.172a.464.464,0,1,1,.266.758Z"/><path class="o" d="M11.018,216.308a.405.405,0,1,0-.324-.473A.406.406,0,0,0,11.018,216.308Zm.129-.683a.29.29,0,0,1-.107.57.29.29,0,1,1,.107-.57Z"/><rect class="o" width="0.116" height="0.116" transform="matrix(0.185, -0.983, 0.983, 0.185, 9.383, 217.476)"/><rect class="o" width="0.116" height="0.116" transform="matrix(0.185, -0.983, 0.983, 0.185, 9.155, 217.433)"/><rect class="i" width="0.059" height="0.252" transform="matrix(0.185, -0.983, 0.983, 0.185, 1.479, 240.514)"/><rect class="i" width="0.059" height="0.05" transform="matrix(0.185, -0.983, 0.983, 0.185, 1.655, 240.667)"/><rect class="i" width="0.059" height="0.252" transform="matrix(0.185, -0.983, 0.983, 0.185, 1.545, 240.164)"/><rect class="i" width="0.059" height="0.252" transform="matrix(0.185, -0.983, 0.983, 0.185, 1.501, 240.397)"/><path class="i" d="M2.309,239.915a.09.09,0,1,0-.058-.1A.083.083,0,0,0,2.309,239.915Zm.022-.116a.027.027,0,0,1,.019.034.027.027,0,0,1-.03.024.027.027,0,0,1-.019-.034A.027.027,0,0,1,2.331,239.8Z"/><rect class="i" width="0.059" height="0.252" transform="matrix(0.185, -0.983, 0.983, 0.185, 1.523, 240.28)"/><path class="i" d="M2.684,240.788l-.025-.044-.043.035.052.091.173-.14-.027-.048Z"/><path class="i" d="M2.541,238.679a1.254,1.254,0,0,0-1.362,1.114,1.253,1.253,0,0,0,.865,1.533,1.253,1.253,0,0,0,1.363-1.114A1.254,1.254,0,0,0,2.541,238.679Zm-.792,2.036a.029.029,0,0,1-.03.025l-.3-.056a.029.029,0,0,1-.019-.034l.11-.583a.027.027,0,0,1,.03-.024l.3.055a.028.028,0,0,1,.019.034Zm.379-1.111.1-.077.046.047.033-.008.029-.069.11.021,0,.074.027.02.061-.028.06.106-.044.057.006.038.057.029-.024.13-.051.005-.014,0-.018.031.02.069-.1.077-.046-.048-.033.009-.029.069-.11-.021v-.059l0-.016-.026-.019-.06.027-.061-.106.044-.057-.006-.037-.057-.03.024-.129.064-.006.019-.034Zm.545,1.375a.21.21,0,0,1-.158-.211l-.6-.112.033-.175.022-.117.222.042a.6.6,0,0,0,.219-1.165.553.553,0,0,0-.6.489l-.006.029.022,0-.09.087-.052-.113.021,0,.006-.029a.665.665,0,0,1,.725-.588.721.721,0,0,1-.263,1.4l.4.074a.2.2,0,0,1,.193-.084.24.24,0,0,1-.088.466Z"/><path class="i" d="M2.287,240.032a.21.21,0,0,0,.077-.408.21.21,0,0,0-.077.408Zm.066-.35a.151.151,0,1,1-.151.123A.138.138,0,0,1,2.353,239.682Z"/><rect class="i" width="0.059" height="0.05" transform="matrix(0.185, -0.983, 0.983, 0.185, 1.556, 240.649)"/><rect class="i" width="0.059" height="0.05" transform="matrix(0.185, -0.983, 0.983, 0.185, 1.457, 240.63)"/><path class="p" d="M7.528,222.9a.038.038,0,0,0,.029.044.038.038,0,0,0,.014-.074A.038.038,0,0,0,7.528,222.9Z"/><path class="p" d="M7.278,222.815a.038.038,0,0,0-.013.074.038.038,0,0,0,.043-.03A.037.037,0,0,0,7.278,222.815Z"/><path class="p" d="M7.924,222.666a.107.107,0,0,0-.022-.15l-.01-.008,0-.014.005-.023a.162.162,0,0,0-.01-.1.171.171,0,0,0-.3-.033l-.009.012-.013,0-.026-.008a.132.132,0,0,0-.14.07l0,.007-.008,0a.086.086,0,0,0-.035.016.1.1,0,0,0-.045.068.107.107,0,0,0,.085.126l.418.078A.107.107,0,0,0,7.924,222.666Z"/><path class="p" d="M7.761,221.861a.752.752,0,1,0,.593.877A.748.748,0,0,0,7.761,221.861Zm.1,1.176a.074.074,0,0,1-.079-.069l-.021,0a.076.076,0,0,1-.059-.088l.027-.147-.109-.021-.025.131a.078.078,0,0,1,.043.063.075.075,0,0,1-.07.079.074.074,0,0,1-.01-.148l.025-.132-.11-.021-.027.148a.076.076,0,0,1-.088.06l-.02,0a.075.075,0,1,1-.054-.1.074.074,0,0,1,.061.069l.02,0a.039.039,0,0,0,.044-.031l.028-.147-.045-.009a.144.144,0,0,1-.054-.261.141.141,0,0,1,.039-.019.171.171,0,0,1,.07-.066.162.162,0,0,1,.106-.015l.019.005a.211.211,0,0,1,.2-.074.208.208,0,0,1,.166.243l0,.017a.144.144,0,0,1-.124.249l-.044-.009-.028.148a.039.039,0,0,0,.03.044l.021,0a.073.073,0,0,1,.081-.042.073.073,0,0,1,.06.068A.075.075,0,0,1,7.862,223.037Z"/><path class="p" d="M7.864,222.925A.038.038,0,0,0,7.85,223a.038.038,0,1,0,.014-.074Z"/><path class="n" d="M-3.174,212.01c.005.047.019.094.021.142a.011.011,0,0,0,.01.01l.067.012a.023.023,0,0,0,.026-.015c.019-.042.044-.082.066-.122a.119.119,0,0,1,.1-.061.607.607,0,0,0,.112-.026.131.131,0,0,1,.119.023c.033.024.068.047.1.074a.022.022,0,0,0,.03,0h0c.019-.015.049-.023.055-.044s-.011-.044-.017-.066-.018-.059-.024-.09a.126.126,0,0,1,.03-.108l.006-.011c-.1.017-.205.028-.307.045a.42.42,0,0,1-.139.025c-.131.023-.26.052-.391.077.029.018.058.038.088.055A.1.1,0,0,1-3.174,212.01Z"/><path class="n" d="M-1.244,211.558c-.247.028-.491.065-.736.1l0,.022a.12.12,0,0,1-.111.084,1.4,1.4,0,0,0-.144.023.028.028,0,0,0-.013.009.242.242,0,0,0-.025.04c-.007.017,0,.033.008.048.01.042.027.082.035.125a.134.134,0,0,1-.051.136,1.417,1.417,0,0,1-.163.116.232.232,0,0,1-.08.036.115.115,0,0,1-.091-.026l-.115-.085a.07.07,0,0,0-.1.028c-.027.045-.047.1-.076.139a.109.109,0,0,1-.106.047,1.093,1.093,0,0,1-.22-.033.157.157,0,0,1-.108-.065.178.178,0,0,1-.021-.082c0-.025-.009-.05-.012-.074l0-.008c.007-.039-.017-.057-.046-.074a.032.032,0,0,0-.03,0c-.047.014-.1.029-.143.041a.127.127,0,0,1-.13-.035A.554.554,0,0,1-3.78,212c-.007-.011,0-.023-.005-.035Q-4.9,212.2-6,212.512a2.54,2.54,0,0,0,1.738,1.253,2.58,2.58,0,0,0,3-2.074C-1.247,211.647-1.25,211.6-1.244,211.558Z"/><path class="q" d="M17.562,216.875a.058.058,0,0,0,.046.066.057.057,0,0,0,.021-.112A.058.058,0,0,0,17.562,216.875Z"/><path class="q" d="M17.116,216.791a.057.057,0,0,0,.046.066.056.056,0,1,0-.046-.066Z"/><path class="q" d="M17.592,216.023a.2.2,0,0,0-.214.105l-.006.011-.012,0a.186.186,0,0,0-.054.024.161.161,0,0,0-.068.1.163.163,0,0,0,.13.19l.637.12a.163.163,0,0,0,.128-.291l-.016-.012.007-.022,0-.014c-.135-.09-.275-.172-.411-.26a.265.265,0,0,0-.053.042l-.013.018-.02-.008A.191.191,0,0,0,17.592,216.023Z"/><path class="q" d="M18.21,216.3a.215.215,0,0,1,.041.162.221.221,0,0,1-.257.176l-.067-.013-.042.225a.058.058,0,0,0,.045.067l.031.006a.112.112,0,0,1,.124-.064.114.114,0,1,1-.135.12l-.031-.006a.115.115,0,0,1-.09-.134l.042-.224-.167-.032-.038.2a.114.114,0,1,1-.056-.01l.038-.2-.167-.032-.042.225a.114.114,0,0,1-.133.091l-.031-.005a.113.113,0,0,1-.124.062.113.113,0,1,1,.134-.118l.032.006a.058.058,0,0,0,.066-.047l.042-.224-.067-.013a.219.219,0,0,1-.024-.426.256.256,0,0,1,.268-.124l.029.007c.009-.011.024-.015.034-.025-.22-.141-.439-.284-.663-.419a1.135,1.135,0,1,0,1.794,1.181C18.6,216.573,18.408,216.433,18.21,216.3Z"/><path class="q" d="M18.12,216.979a.058.058,0,0,0-.046-.066.057.057,0,0,0-.021.112A.058.058,0,0,0,18.12,216.979Z"/><circle class="g" cx="5.08" cy="5.08" r="5.08" transform="translate(12.547 230.695)"/><path class="b" d="M4.564,277.311c.616,5.319,2.78,8.944,1.959,9.94-.7,1.177-5.391.138-12.093-1.121s-9.474-1.611-10.967-2.055-4.216-1.9-1.6-4.09,5.17-5.7,4.25-12.549c-1.073-6.881-2.827-13.518-.534-14.348,3.127-.232,2.732,1.617,6.422,8.933,3.651,6.678,8.606,5.4,13.272-.884a10.052,10.052,0,0,0,1.872-4.175c.767-3.571,5.753-3.107,4.71,2.373S5.1,269.635,4.564,277.311Z"/><path class="g" d="M30.683,245.811a29.157,29.157,0,0,1-4.512,10.947c-4.216,8.186-13.766,12.6-15.648,23.924C9.488,287.7,14.2,293.7,17.377,297.908H5.764A101.213,101.213,0,0,0,8.608,282.7a30.168,30.168,0,0,1,3.518-11.958c5.391-9.485,5.358-15.394.665-21.853-5.884-8-2.071-9.082,3.658-5.877s8.58,3.584,9.213-1.553c1.035-6.361-3.139-11.881-.148-13.15a2.541,2.541,0,0,1,3.476,1.06A28.94,28.94,0,0,1,30.683,245.811Z"/></g></svg>