<svg xmlns="http://www.w3.org/2000/svg" xmlns:xlink="http://www.w3.org/1999/xlink" width="286" height="200" viewBox="0 0 286 200"><defs><style>.a{fill:#dd9a9a;}.b{clip-path:url(#a);}.c{opacity:0.7;}.d{fill:url(#b);}.e{fill:#e0e0e0;}.f{opacity:0.1;}.g{fill:#702e87;}.h{fill:#fdb797;}.i{fill:#333;}.j{fill:url(#c);}.k{fill:#6762a6;}.l{fill:#fff;}.m{fill:#252f3e;}.n{fill:#f90;}.o{fill:#cac9c2;}.p{fill:#5072aa;}.q{fill:#4d6796;}.r{fill:#cc4232;}.s{fill:#b23f33;}.t{fill:#ecb02a;}.u{fill:#c79732;}</style><clipPath id="a"><rect class="a" width="286" height="200" rx="6"/></clipPath><linearGradient id="b" x1="0.5" y1="1" x2="0.5" gradientUnits="objectBoundingBox"><stop offset="0" stop-color="gray" stop-opacity="0.251"/><stop offset="0.54" stop-color="gray" stop-opacity="0.122"/><stop offset="1" stop-color="gray" stop-opacity="0.102"/></linearGradient><linearGradient id="c" x1="0.5" y1="1" x2="0.5" y2="0" xlink:href="#b"/></defs><rect class="a" width="286" height="200" rx="6"/><g class="b"><g transform="translate(13)"><g class="c" transform="translate(48.182)"><path class="d" d="M55.46,107.562l-.179-.043v-6.883a36.593,36.593,0,0,0,27.3-29.568h.088c1.755,0,3.175-2.671,3.175-5.963a8.292,8.292,0,0,0-1.381-4.918q.189-1.888.192-3.828A38.1,38.1,0,0,0,72.914,28.8a24.552,24.552,0,0,0-2.7-7.251c-2.706-4.775-7.21-9.745-5.373-14.923L52.955,7.845,52.845,0c-3.71.667-5.264,4.973-7.465,8.04-5.294,7.376-15.919,8.4-22.946,14.146-2.387,1.952-7.757,7.888-6.748,11.78A38.229,38.229,0,0,0,8.629,60.187a8.292,8.292,0,0,0-1.381,4.918c0,3.3,1.423,5.963,3.175,5.963h.088a36.593,36.593,0,0,0,27.3,29.568v6.883l-.179.043c-4.093-.478-45.4-3.636-36.34,64.4L6.85,192.476l1.238-.049a8.731,8.731,0,0,0,17.147,1.556c7.867-.027,16.752-.052,21.286-.052s13.434.027,21.286.052a8.731,8.731,0,0,0,17.162-1.556l1.238.049,5.556-20.514C100.862,103.926,59.553,107.084,55.46,107.562Z" transform="translate(0.126 0.295)"/></g><rect class="e" width="197.746" height="7" transform="translate(0 190)"/><rect class="e" width="181.686" height="3" transform="translate(8.03 197)"/><rect class="f" width="181.686" height="1" transform="translate(8.03 197)"/><path class="f" d="M0,4s26.592-.108,35.634-.108S71.269,4,71.269,4V0H0Z" transform="translate(59.223 187)"/><path class="g" d="M71.269,84s-26.592-.1-35.634-.1S0,84,0,84V35.4A35.52,35.52,0,0,1,35.631,0h0a35.752,35.752,0,0,1,25.2,10.369A35.29,35.29,0,0,1,71.269,35.4Z" transform="translate(59.223 106)"/><path class="h" d="M5.151,0h6.762a5.158,5.158,0,0,1,5.151,5.165V19.444A8.544,8.544,0,0,1,8.532,28h0A8.544,8.544,0,0,1,0,19.444V5.165A5.158,5.158,0,0,1,5.151,0Z" transform="translate(86.326 88)"/><path class="f" d="M0,11.98a36.205,36.205,0,0,0,17.064,0V0H0Z" transform="translate(86.326 89)"/><ellipse class="i" cx="37.14" cy="37" rx="37.14" ry="37" transform="translate(57.216 21)"/><ellipse class="h" cx="35.634" cy="35.5" rx="35.634" ry="35.5" transform="translate(59.223 31)"/><path class="i" d="M6.685,21.276c6.828-5.508,17.156-6.49,22.3-13.566,2.14-2.94,3.648-7.07,7.256-7.71l.107,7.523L47.9,6.351c-1.783,4.961,2.593,9.738,5.222,14.315a23.333,23.333,0,0,1,3.085,11.082c-4.012,2.381-8.986-.218-13.454-1.6C38.417,28.8,33.8,28.657,29.253,28.531a28.454,28.454,0,0,0-6.971.378A35.316,35.316,0,0,0,16.527,31C13.454,32.274,3.749,37.072.894,33.978-2.341,30.47,4.049,23.4,6.685,21.276Z" transform="translate(64.242 4)"/><path class="f" d="M5.536,20.669a16.306,16.306,0,0,0,6.3,1.895,55.493,55.493,0,0,0,27.026-3.036c1.411,3.575,4.855,6.031,8.518,7.2S54.95,27.954,58.793,28a4.35,4.35,0,0,0,2.454-.469c1.712-1.156.883-3.8-.113-5.611l-4.96-8.978c-1.466-2.655-2.975-5.366-5.245-7.377-2.846-2.517-6.625-3.7-10.352-4.443A58.4,58.4,0,0,0,14,2.008C4.732,4.5-7.175,12.979,5.536,20.669Z" transform="translate(68.258 28)"/><path class="i" d="M5.536,20.672a16.311,16.311,0,0,0,6.3,1.894,55.516,55.516,0,0,0,27.026-3.034c1.411,3.574,4.855,6.029,8.518,7.2S54.95,27.954,58.793,28a4.351,4.351,0,0,0,2.454-.469c1.712-1.155.883-3.8-.113-5.609l-4.96-8.986c-1.466-2.654-2.975-5.363-5.245-7.374-2.846-2.516-6.625-3.7-10.352-4.441A58.427,58.427,0,0,0,14,2.007C4.732,4.508-7.175,12.982,5.536,20.672Z" transform="translate(68.258 28)"/><ellipse class="h" cx="3.011" cy="6" rx="3.011" ry="6" transform="translate(127.481 61)"/><ellipse class="h" cx="3.011" cy="6" rx="3.011" ry="6" transform="translate(56.212 61)"/><path class="g" d="M0,.2S45.194-6.75,35.874,62.228L30.439,82,14.9,81.393S25,58.4,18.787,43.071,0,.2,0,.2Z" transform="translate(103.39 107)"/><path class="g" d="M37.14.2S-8.045-6.75,1.263,62.228L6.7,82l15.538-.607S12.138,58.4,18.352,43.071,37.14.2,37.14.2Z" transform="translate(49.186 107)"/><path class="f" d="M.829,0S-2.084,24.01,3.011,31" transform="translate(66.25 138)"/><path class="f" d="M2.183,0S5.1,23.1,0,30" transform="translate(120.455 139)"/><ellipse class="h" cx="8.532" cy="8.5" rx="8.532" ry="8.5" transform="translate(115.436 180)"/><ellipse class="h" cx="8.532" cy="8.5" rx="8.532" ry="8.5" transform="translate(57.216 180)"/><g class="c" transform="translate(66.25 141)"><rect class="j" width="56.141" height="49" rx="21.34" transform="translate(0.012)"/></g><rect class="e" width="54.205" height="48" rx="21.34" transform="translate(67.254 142)"/><path class="k" d="M23.428,41c-.911,0-1.247-.562-1.247-1.332V36.233h.989V39.8a.355.355,0,0,0,.118.274.351.351,0,0,0,.284.087,4.018,4.018,0,0,0,1.517-.328v-3.6H26.1v4.04A5.268,5.268,0,0,1,23.45,41Zm-11.016-2.42c0-1.785.889-2.462,2.164-2.462,1.49,0,2.164.736,2.164,2.423,0,1.785-.892,2.463-2.164,2.463C13.086,41,12.412,40.263,12.412,38.577Zm-7.678.034a8.042,8.042,0,0,1,.249-2.2A5.69,5.69,0,0,1,6.989,36.1c1.366,0,1.782.764,1.782,2.1v.51H5.736l-.013.013c.033,1.2.267,1.433,1,1.433a5.119,5.119,0,0,0,1.724-.385l.167.755A4.651,4.651,0,0,1,6.658,41C4.992,41,4.734,40.083,4.734,38.611Zm-1.872,2.27h.005v0Zm17.519,0a6.566,6.566,0,0,0-1.247-2.138h-.526v2.138h-.976V34.25h1v3.8H19.1a6.118,6.118,0,0,0,1.174-1.833h1.123a7.843,7.843,0,0,1-1.424,2.029,14.215,14.215,0,0,1,1.606,2.622l-.021.009Zm-10.75,0V36.826a5.752,5.752,0,0,1,2.316-.645v.838a4.235,4.235,0,0,0-1.314.259h0v3.6Zm-6.764,0V37.306a.353.353,0,0,0-.4-.361A3.778,3.778,0,0,0,1,37.273v3.6H0V34.25H1v2.188A4.749,4.749,0,0,1,2.6,36.111c.911,0,1.247.563,1.247,1.333v3.437Zm20.145-8.317-.024,0H3.09a3.072,3.072,0,0,1-2.183-.905A3.117,3.117,0,0,1,0,29.459V3.1A3.094,3.094,0,0,1,3.083,0H23a3.074,3.074,0,0,1,2.189.9A3.12,3.12,0,0,1,26.1,3.1V29.459a3.116,3.116,0,0,1-.9,2.2,3.073,3.073,0,0,1-2.179.908Z" transform="translate(81.307 145)"/><path class="l" d="M10.245,10.876S11.074,7.735.021,12.16C0,12.216,0,.022,0,.022L3.618,0V7.812s10.112-4.1,10.112,3.1V23.994H10.245V10.876ZM.067,16.5,3.7,20.238.067,23.975ZM12.3,4.726H12.3Zm-3.83,0A24.6,24.6,0,0,0,11.1.022h3.962a19.672,19.672,0,0,1-2.759,4.7Z" transform="translate(87.33 149)"/><g class="c" transform="translate(208.788 118)"><rect class="j" width="56.141" height="49" rx="21.34" transform="translate(0.012)"/></g><rect class="e" width="54.205" height="48" rx="21.34" transform="translate(209.792 118)"/><path class="m" d="M35.01,14a9.388,9.388,0,0,1-2.226-.267,6.556,6.556,0,0,1-1.676-.6.859.859,0,0,1-.538-.833v-.759c0-.311.115-.461.335-.461a.811.811,0,0,1,.261.044c.088.031.219.09.365.149a7.816,7.816,0,0,0,1.6.522,8.564,8.564,0,0,0,1.733.177A3.86,3.86,0,0,0,37,11.484a1.613,1.613,0,0,0,.757-1.415,1.462,1.462,0,0,0-.392-1.041,3.622,3.622,0,0,0-1.472-.775l-2.127-.671a4.412,4.412,0,0,1-2.329-1.521A3.589,3.589,0,0,1,30.707,3.9,3.363,3.363,0,0,1,31.1,2.249a3.793,3.793,0,0,1,1.049-1.222A4.585,4.585,0,0,1,33.67.252,6.232,6.232,0,0,1,35.494,0a7.229,7.229,0,0,1,.976.059c.335.043.642.106.946.165a6.062,6.062,0,0,1,.831.239,3.211,3.211,0,0,1,.608.267,1.276,1.276,0,0,1,.437.373.823.823,0,0,1,.131.491v.7c0,.311-.116.476-.335.476a1.507,1.507,0,0,1-.554-.177,6.544,6.544,0,0,0-2.8-.581,3.692,3.692,0,0,0-1.938.417,1.446,1.446,0,0,0-.685,1.325,1.426,1.426,0,0,0,.438,1.057,4.323,4.323,0,0,0,1.6.817l2.068.671a4.4,4.4,0,0,1,2.257,1.431,3.415,3.415,0,0,1,.669,2.086,3.894,3.894,0,0,1-.38,1.729,3.99,3.99,0,0,1-1.065,1.309,4.665,4.665,0,0,1-1.618.833A6.79,6.79,0,0,1,35.057,14ZM3.992,13.937a3.954,3.954,0,0,1-2.914-1.073,4.268,4.268,0,0,1,.247-5.926A5.219,5.219,0,0,1,4.892,5.775a11.231,11.231,0,0,1,1.545.118c.538.075,1.093.193,1.676.327V5.131A3.351,3.351,0,0,0,7.43,2.75a3.282,3.282,0,0,0-2.375-.684,6.441,6.441,0,0,0-1.573.193,11.426,11.426,0,0,0-1.572.507,3.972,3.972,0,0,1-.511.193A.9.9,0,0,1,1.164,3c-.2,0-.3-.149-.3-.461V1.81a.946.946,0,0,1,.1-.522A1.089,1.089,0,0,1,1.371.977,8.276,8.276,0,0,1,3.2.305,8.64,8.64,0,0,1,5.468.023,5.243,5.243,0,0,1,9.285,1.229,4.943,4.943,0,0,1,10.5,4.891V9.727h.024a4.6,4.6,0,0,0,.162,1.325,7.979,7.979,0,0,0,.465,1.073.665.665,0,0,1,.1.342.59.59,0,0,1-.277.447l-.913.623a.69.69,0,0,1-.38.133.662.662,0,0,1-.438-.208,4.573,4.573,0,0,1-.523-.7,7.623,7.623,0,0,1-.45-.88,5.338,5.338,0,0,1-4.195,2.056Zm19.226-.472a1.064,1.064,0,0,1-.276-.6L20.685,3.263l-2.245,9.59a1.178,1.178,0,0,1-.276.6.9.9,0,0,1-.584.149H16.311a.8.8,0,0,1-.553-.149,1.223,1.223,0,0,1-.3-.581L12.031,1.363a2.7,2.7,0,0,1-.13-.6.331.331,0,0,1,.085-.274.313.313,0,0,1,.265-.1h1.427a.792.792,0,0,1,.569.149,1.234,1.234,0,0,1,.3.581l2.433,9.86,2.273-9.86a1.056,1.056,0,0,1,.276-.581.986.986,0,0,1,.584-.149h1.166a.858.858,0,0,1,.583.149,1.008,1.008,0,0,1,.277.581l2.3,9.978,2.522-9.978a1.281,1.281,0,0,1,.3-.581.924.924,0,0,1,.569-.149h1.354a.317.317,0,0,1,.274.093.334.334,0,0,1,.091.28,1.514,1.514,0,0,1-.03.239,2.206,2.206,0,0,1-.1.373l-3.51,11.506a1.152,1.152,0,0,1-.3.581.916.916,0,0,1-.554.149H23.8a.849.849,0,0,1-.093.005A.865.865,0,0,1,23.218,13.465Z" transform="translate(216.818 129)"/><path class="n" d="M39.8,3.578C34.983,7.12,27.985,9,21.968,9A32.356,32.356,0,0,1,.194.737C-.258.329.151-.224.693.1A43.434,43.434,0,0,0,39.1,2.471c.8-.365,1.5.523.7,1.107Z" transform="translate(214.811 147)"/><path class="n" d="M5.871,2.152c-.595-.781-3.959-.377-5.485-.187-.455.057-.527-.347-.113-.651C2.95-.591,7.353-.042,7.867.594s-.143,5.123-2.65,7.233c-.384.332-.756.16-.595-.274C5.2,6.133,6.469,2.914,5.871,2.152Z" transform="translate(250.947 146)"/><g class="c" transform="translate(175.663 36)"><rect class="j" width="56.141" height="49" rx="21.34" transform="translate(0.012)"/></g><rect class="e" width="54.205" height="48" rx="21.34" transform="translate(176.667 36)"/><path class="o" d="M7.278,25,0,12.5,7.278,0H21.832L29.11,12.5,21.832,25H7.278" transform="translate(188.712 48)"/><path class="l" d="M6.023,12a6,6,0,1,1,6.023-6,6.011,6.011,0,0,1-6.023,6" transform="translate(197.746 54)"/><path class="p" d="M28.421,1.391A3.174,3.174,0,0,0,25.954,0H7.778A3.174,3.174,0,0,0,5.312,1.391l-5.3,8.98A2.891,2.891,0,0,0,.343,12l3.595,6L10.354,7.175H30.637a3.012,3.012,0,0,1,1.484.457L28.43,1.388" transform="translate(186.705 42)"/><path class="q" d="M.211,0,.01.395A3.283,3.283,0,0,0,.294,2.018L3.379,8l1.64-3.217L.2,0" transform="translate(186.705 51)"/><path class="l" d="M0,1A1.052,1.052,0,0,1,1.1,0,1.052,1.052,0,0,1,2.2,1,1.052,1.052,0,0,1,1.1,2,1.052,1.052,0,0,1,0,1Zm17.559.818a.916.916,0,0,1-.519-.8V1a1.021,1.021,0,0,1,2.032,0,.911.911,0,0,1-.5.807,1.1,1.1,0,0,1-1.015.011Z" transform="translate(194.735 44)"/><path class="r" d="M18.73,9.546,13.383.455A2.974,2.974,0,0,0,11.913,0H4.67l6.27,10.844-9.921,17.2A2.843,2.843,0,0,1,0,29H7.289a3.141,3.141,0,0,0,2.443-1.385l9-15.3a3.016,3.016,0,0,0,0-2.767" transform="translate(204.773 49)"/><path class="s" d="M8.03.795,7.814.418A2.615,2.615,0,0,0,6.5,0H0L1.692,3,8.03.792" transform="translate(209.792 49)"/><path class="l" d="M.086,16.315a1.1,1.1,0,0,1,.245-1.21,1.144,1.144,0,0,1,1.23-.24A1.107,1.107,0,0,1,1.13,17,1.13,1.13,0,0,1,.086,16.315ZM8.783,1.11a1.13,1.13,0,0,1,2.259,0,1.13,1.13,0,0,1-2.259,0Z" transform="translate(210.795 59)"/><path class="t" d="M14.41,18.633l-10.021-17A2.941,2.941,0,0,1,4.063,0L.335,6.411a3.07,3.07,0,0,0,0,2.787l8.98,15.409A3.124,3.124,0,0,0,11.75,26H22.429a2.847,2.847,0,0,0,1.016-.965L27.1,18.624H14.41" transform="translate(182.689 52)"/><path class="u" d="M0,8H.584a2.893,2.893,0,0,0,.964-1.046L5.019,0H1.329L0,7.993" transform="translate(204.773 71)"/><path class="l" d="M8.787,15.89A1.128,1.128,0,1,1,9.914,17,1.119,1.119,0,0,1,8.787,15.89ZM0,1.11A1.119,1.119,0,0,1,1.128,0,1.119,1.119,0,0,1,2.255,1.11a1.119,1.119,0,0,1-1.128,1.11A1.119,1.119,0,0,1,0,1.11Z" transform="translate(184.697 59)"/></g></g></svg>